<?xml version="1.0" ?><!DOCTYPE svg  PUBLIC '-//W3C//DTD SVG 1.0//EN'  'http://www.w3.org/TR/2001/REC-SVG-20010904/DTD/svg10.dtd'><svg enable-background="new 0 0 72 72" height="72px" id="Layer_1" version="1.0" viewBox="0 0 72 72" width="72px" xml:space="preserve" xmlns="http://www.w3.org/2000/svg" xmlns:xlink="http://www.w3.org/1999/xlink"><g><path d="M36.526,13.412c-11.651,0-21.097,9.444-21.097,21.096c0,11.65,9.444,21.097,21.097,21.097   c11.649,0,21.096-9.445,21.096-21.097C57.621,22.856,48.176,13.412,36.526,13.412" fill="#F26C21"/><path d="M29.075,46.514c-0.812-0.006-0.896-0.062-0.869-0.89c0.09-2.948,0.205-5.896,0.3-8.844   c0.051-1.6,0.091-3.198,0.116-4.797c0.01-0.664-0.109-0.743-0.773-0.577c-0.533,0.134-1.065,0.278-1.593,0.444   c-0.471,0.148-0.756,0.02-0.87-0.474c-0.388-1.679-0.774-3.357-1.176-5.035c-0.109-0.455,0.162-0.652,0.493-0.825   c2.479-1.293,4.984-2.502,7.818-2.836c0.661-0.078,1.07-0.509,1.431,0.085c1.178,1.942,3.652,1.835,5.063-0.081   c0.232-0.314,0.286-0.107,0.675-0.044c1.053,0.173,2.101,0.377,3.138,0.626c0.58,0.14,1.148,0.356,1.696,0.602   c1.167,0.521,2.31,1.099,3.477,1.623c0.452,0.203,0.546,0.534,0.464,0.952c-0.112,0.575-0.254,1.145-0.389,1.716   c-0.254,1.073-0.522,2.144-0.765,3.218c-0.106,0.475-0.356,0.61-0.812,0.475c-0.579-0.173-1.163-0.33-1.747-0.481   c-0.478-0.124-0.643-0.012-0.627,0.484c0.044,1.491,0.115,2.981,0.17,4.473c0.048,1.314,0.097,2.629,0.13,3.943   c0.045,1.758,0.085,3.519,0.111,5.276c0.013,0.903-0.067,0.967-0.973,0.97c-0.205-0.035-0.409-0.102-0.614-0.102   c-4.42-0.006-8.841-0.006-13.261,0C29.485,46.417,29.28,46.48,29.075,46.514" fill="#FFFFFF"/></g></svg>